<?xml version="1.0" encoding="UTF-8"?>
<!DOCTYPE svg PUBLIC "-//W3C//DTD SVG 1.1//EN" "http://www.w3.org/Graphics/SVG/1.1/DTD/svg11.dtd">
<svg xmlns="http://www.w3.org/2000/svg" version="1.1" width="32px" height="32px" style="shape-rendering:geometricPrecision; text-rendering:geometricPrecision; image-rendering:optimizeQuality; fill-rule:evenodd; clip-rule:evenodd" xmlns:xlink="http://www.w3.org/1999/xlink">
<g><path style="opacity:0.985" fill="#7d240a" d="M 9.5,-0.5 C 13.5,-0.5 17.5,-0.5 21.5,-0.5C 25.1203,1.45279 28.1203,4.11945 30.5,7.5C 30.3284,8.49162 30.6618,9.15829 31.5,9.5C 31.5,13.5 31.5,17.5 31.5,21.5C 30.6618,21.8417 30.3284,22.5084 30.5,23.5C 29.6618,23.8417 29.3284,24.5084 29.5,25.5C 28.8333,25.5 28.5,25.8333 28.5,26.5C 27.8333,26.5 27.5,26.8333 27.5,27.5C 26.8333,27.5 26.5,27.8333 26.5,28.5C 25.8333,28.5 25.5,28.8333 25.5,29.5C 24.5084,29.3284 23.8417,29.6618 23.5,30.5C 22.5084,30.3284 21.8417,30.6618 21.5,31.5C 17.5,31.5 13.5,31.5 9.5,31.5C 9.15829,30.6618 8.49162,30.3284 7.5,30.5C 4.83333,28.5 2.5,26.1667 0.5,23.5C 0.67158,22.5084 0.338246,21.8417 -0.5,21.5C -0.5,17.5 -0.5,13.5 -0.5,9.5C 0.338246,9.15829 0.67158,8.49162 0.5,7.5C 2.87968,4.11945 5.87968,1.45279 9.5,-0.5 Z"/></g>
<g><path style="opacity:0.02" fill="#6f2900" d="M -0.5,5.5 C 0.338246,5.84171 0.67158,6.50838 0.5,7.5C 0.166667,7.5 -0.166667,7.5 -0.5,7.5C -0.5,6.83333 -0.5,6.16667 -0.5,5.5 Z"/></g>
<g><path style="opacity:0.02" fill="#6f2900" d="M 31.5,5.5 C 31.5,6.16667 31.5,6.83333 31.5,7.5C 31.1667,7.5 30.8333,7.5 30.5,7.5C 30.3284,6.50838 30.6618,5.84171 31.5,5.5 Z"/></g>
<g><path style="opacity:1" fill="#ede6e5" d="M 20.5,15.5 C 18.5363,17.1274 17.203,19.1274 16.5,21.5C 17.5,21.5 18.5,21.5 19.5,21.5C 19.5,22.5 19.5,23.5 19.5,24.5C 16.8333,24.5 14.1667,24.5 11.5,24.5C 11.5,23.5 11.5,22.5 11.5,21.5C 12.5,21.5 13.5,21.5 14.5,21.5C 13.797,19.1274 12.4637,17.1274 10.5,15.5C 10.5,12.8333 10.5,10.1667 10.5,7.5C 13.8333,7.5 17.1667,7.5 20.5,7.5C 20.5,10.1667 20.5,12.8333 20.5,15.5 Z"/></g>
<g><path style="opacity:1" fill="#c6afac" d="M 20.5,15.5 C 20.5,12.8333 20.5,10.1667 20.5,7.5C 17.1667,7.5 13.8333,7.5 10.5,7.5C 10.5,10.1667 10.5,12.8333 10.5,15.5C 9.52333,12.7131 9.19,9.7131 9.5,6.5C 13.5,6.5 17.5,6.5 21.5,6.5C 21.81,9.7131 21.4767,12.7131 20.5,15.5 Z"/></g>
<g><path style="opacity:1" fill="#700000" d="M 12.5,9.5 C 14.604,9.2011 16.604,9.53443 18.5,10.5C 17.5,10.8333 16.5,11.1667 15.5,11.5C 13.9704,11.3601 12.9704,10.6935 12.5,9.5 Z"/></g>
<g><path style="opacity:0.008" fill="#771b00" d="M -0.5,23.5 C -0.166667,23.5 0.166667,23.5 0.5,23.5C 0.67158,24.4916 0.338246,25.1583 -0.5,25.5C -0.5,24.8333 -0.5,24.1667 -0.5,23.5 Z"/></g>
<g><path style="opacity:0.008" fill="#771b00" d="M 30.5,23.5 C 30.8333,23.5 31.1667,23.5 31.5,23.5C 31.5,24.1667 31.5,24.8333 31.5,25.5C 31.1667,25.5 30.8333,25.5 30.5,25.5C 30.5,24.8333 30.5,24.1667 30.5,23.5 Z"/></g>
<g><path style="opacity:0.012" fill="#a90000" d="M 29.5,25.5 C 29.8333,25.5 30.1667,25.5 30.5,25.5C 30.3147,26.1701 29.9813,26.1701 29.5,25.5 Z"/></g>
<g><path style="opacity:0.02" fill="#983300" d="M 28.5,26.5 C 28.8333,26.5 29.1667,26.5 29.5,26.5C 29.3147,27.1701 28.9813,27.1701 28.5,26.5 Z"/></g>
<g><path style="opacity:0.02" fill="#653300" d="M 27.5,27.5 C 27.8333,27.5 28.1667,27.5 28.5,27.5C 28.3147,28.1701 27.9813,28.1701 27.5,27.5 Z"/></g>
<g><path style="opacity:0.02" fill="#983300" d="M 26.5,28.5 C 26.8333,28.5 27.1667,28.5 27.5,28.5C 27.3147,29.1701 26.9813,29.1701 26.5,28.5 Z"/></g>
<g><path style="opacity:0.012" fill="#a90000" d="M 25.5,29.5 C 25.8333,29.5 26.1667,29.5 26.5,29.5C 26.3147,30.1701 25.9813,30.1701 25.5,29.5 Z"/></g>
<g><path style="opacity:0.02" fill="#963300" d="M 5.5,31.5 C 5.84171,30.6618 6.50838,30.3284 7.5,30.5C 7.5,30.8333 7.5,31.1667 7.5,31.5C 6.83333,31.5 6.16667,31.5 5.5,31.5 Z"/></g>
<g><path style="opacity:0.004" fill="#c92a00" d="M 23.5,31.5 C 23.5,31.1667 23.5,30.8333 23.5,30.5C 24.1667,30.5 24.8333,30.5 25.5,30.5C 25.5,30.8333 25.5,31.1667 25.5,31.5C 24.8333,31.5 24.1667,31.5 23.5,31.5 Z"/></g>
</svg>
